<?xml version="1.0" encoding="UTF-8"?> <!-- Generator: Adobe Illustrator 24.1.0, SVG Export Plug-In . SVG Version: 6.00 Build 0) --> <svg xmlns="http://www.w3.org/2000/svg" xmlns:xlink="http://www.w3.org/1999/xlink" id="Слой_1" x="0px" y="0px" viewBox="0 0 25 25" style="enable-background:new 0 0 25 25;" xml:space="preserve"> <style type="text/css"> .st0{fill:none;stroke:#000000;stroke-width:0.85;stroke-miterlimit:10;} </style> <g> <path d="M12.5,0.9c6.4,0,11.6,5.2,11.6,11.6s-5.2,11.6-11.6,11.6S0.8,18.9,0.8,12.5S6.1,0.9,12.5,0.9 M12.5,0C5.6,0,0,5.6,0,12.5 S5.6,25,12.5,25S25,19.4,25,12.5S19.4,0,12.5,0L12.5,0z"></path> </g> <line class="st0" x1="12.5" y1="14.9" x2="12.5" y2="6.5"></line> <line class="st0" x1="12.5" y1="2.6" x2="12.5" y2="0.6"></line> <line class="st0" x1="12.5" y1="24.6" x2="12.5" y2="22.6"></line> <line class="st0" x1="22.6" y1="12.5" x2="24.6" y2="12.5"></line> <line class="st0" x1="0.4" y1="12.5" x2="2.4" y2="12.5"></line> <line class="st0" x1="10.1" y1="12.5" x2="20.8" y2="12.5"></line> </svg> 