<?xml version="1.0" encoding="UTF-8"?> <!-- Generator: Adobe Illustrator 24.1.0, SVG Export Plug-In . SVG Version: 6.00 Build 0) --> <svg xmlns="http://www.w3.org/2000/svg" xmlns:xlink="http://www.w3.org/1999/xlink" id="Слой_1" x="0px" y="0px" viewBox="0 0 25 25" style="enable-background:new 0 0 25 25;" xml:space="preserve"> <style type="text/css"> .st0{fill:#FFFFFF;} .st1{fill:none;} .st2{fill:none;stroke:#000000;stroke-width:0.85;stroke-miterlimit:10;} </style> <g> <path d="M16.1,4.9v19.3H0.9V4.9H16.1z M0,4v21h17V4H0z"></path> </g> <polygon points="8,0 8,4.1 8.8,4.1 8.8,0.8 24.2,0.8 24.2,20.2 16.5,20.2 16.5,21 25,21 25,0 "></polygon> <rect x="3" y="13.8" width="6" height="0.8"></rect> <rect x="3" y="18.8" width="6" height="0.8"></rect> <g> <rect x="12.1" y="12.7" width="0.8" height="3"></rect> <rect x="11" y="13.8" width="3" height="0.8"></rect> </g> <g> <rect x="12.1" y="17.7" width="0.8" height="3"></rect> <rect x="11" y="18.8" width="3" height="0.8"></rect> </g> <rect x="3" y="8.8" width="11" height="0.8"></rect> </svg> 