<?xml version="1.0" encoding="UTF-8"?> <!-- Generator: Adobe Illustrator 24.1.0, SVG Export Plug-In . SVG Version: 6.00 Build 0) --> <svg xmlns="http://www.w3.org/2000/svg" xmlns:xlink="http://www.w3.org/1999/xlink" id="Слой_1" x="0px" y="0px" viewBox="0 0 25 25" style="enable-background:new 0 0 25 25;" xml:space="preserve"> <style type="text/css"> .st0{fill:#FFFFFF;} .st1{fill:none;} .st2{fill:none;stroke:#000000;stroke-width:0.85;stroke-miterlimit:10;} </style> <g> <polygon class="st1" points="17,16.1 18.3,16.1 18.6,16.1 18.9,16.4 21.4,19 21.4,17 21.4,16.2 22.3,16.2 24.1,16.1 24.1,0.8 8.9,0.8 8.9,4 17,4 "></polygon> <polygon class="st1" points="8.9,4.8 8,4.8 0.9,4.8 0.9,20.2 2.7,20.2 3.6,20.2 3.6,21 3.6,23 6.1,20.4 6.4,20.1 6.7,20.1 16.1,20.1 16.1,17 16.1,16.1 16.1,4.8 "></polygon> <polygon points="8,0 8,4 8.9,4 8.9,0.8 24.1,0.8 24.1,16.1 22.3,16.2 21.4,16.2 21.4,17 21.4,19 18.9,16.4 18.6,16.1 18.3,16.1 17,16.1 17,17 18.3,17 22.3,21 22.3,17 25,17 25,0 "></polygon> <polygon points="2.7,25 6.7,21 2.7,25 "></polygon> <polygon points="0,21 2.7,21 2.7,21 "></polygon> <polygon points="16.1,20.1 6.7,20.1 6.4,20.1 6.1,20.4 3.6,23 3.6,21 3.6,20.2 2.7,20.2 0.9,20.2 0.9,4.8 8,4.8 8,4 0,4 0,21 2.7,21 2.7,21 2.7,25 6.7,21 17,21 17,17 16.1,17 "></polygon> <polygon points="16.1,4.8 16.1,16.1 17,16.1 17,4 8.9,4 8.9,4.8 "></polygon> <rect x="16.1" y="16.1" width="0.9" height="0.8"></rect> <rect x="8" y="4" width="0.8" height="0.8"></rect> </g> <rect x="3.2" y="13.8" width="6" height="0.8"></rect> <g> <rect x="12.1" y="12.7" width="0.8" height="3"></rect> <rect x="11" y="13.8" width="3" height="0.8"></rect> </g> <rect x="3.2" y="8.8" width="10.8" height="0.8"></rect> </svg> 