<?xml version="1.0" encoding="UTF-8"?> <!-- Generator: Adobe Illustrator 23.1.1, SVG Export Plug-In . SVG Version: 6.00 Build 0) --> <svg xmlns="http://www.w3.org/2000/svg" xmlns:xlink="http://www.w3.org/1999/xlink" id="Слой_1" x="0px" y="0px" viewBox="0 0 60 27" style="enable-background:new 0 0 60 27;" xml:space="preserve"> <style type="text/css"> .st0{fill:#1A1A1A;} </style> <path class="st0" d="M0.27,21.83c0.92,1.29,3.08,2.67,5.72,2.67c3.22,0,4.71-2.03,4.71-4.57c0-2.1-0.78-3.42-3.66-5.42l-1.66-1.12 c-3.52-2.34-4.47-4.6-4.47-6.94C0.92,2.95,3.59,0,8.23,0c1.32,0,2.44,0.17,3.25,0.34l1.72,0.27c-0.1,0.34-0.27,2.1-0.27,3.25 C12.32,3.08,10.76,1.9,8.02,1.9c-2.57,0-4.3,1.59-4.3,3.89c0,1.83,0.41,3.15,3.59,5.21l1.56,1.05c4.03,2.67,4.81,4.74,4.81,7.28 c0,1.46-0.58,4.13-2.95,5.75c-1.49,1.05-3.38,1.45-5.11,1.45c-2.17,0-4.54-0.57-5.62-1.39C0.1,24.68,0.27,22.81,0.27,21.83"></path> <path class="st0" d="M18.1,18.42c0-3.29,2.17-5.75,5.14-7.89c-0.95-1.49-1.45-2.78-1.45-4.43c0-3.11,2.2-6.09,7.04-6.09 c2.34,0,3.89,0.54,4.84,1.19c-0.17,0.71-0.4,2.13-0.4,2.74c-0.85-0.98-2.34-2-4.64-2c-2.27,0-4.1,1.46-4.1,3.99 c0,2.1,1.05,3.79,5.11,8.22c2.51,2.71,4.71,4.77,5.69,5.59c1.72-2.54,2.84-6.37,3.11-8.63c0.64,0.27,2.13,0.47,2.81,0.57 c-0.54,2.84-2.44,7.14-4.33,9.41c3.11,2.67,5.52,4.16,6.91,4.54c-0.3,0.37-1.29,0.71-2.91,0.71c-1.83,0-3.92-1.46-5.92-3.11 c-0.88,0.78-3.52,3.32-8.02,3.32C21.05,26.54,18.1,22.31,18.1,18.42 M33.44,21.83c-3.49-3.22-6.67-6.53-9.14-9.78 c-2.06,1.49-3.32,3.42-3.32,5.75c0,3.76,2.88,6.36,6.67,6.36C30.22,24.17,32.12,23.15,33.44,21.83"></path> <path class="st0" d="M46.6,21.83c0.91,1.29,3.08,2.67,5.72,2.67c3.22,0,4.71-2.03,4.71-4.57c0-2.1-0.78-3.42-3.66-5.42l-1.66-1.12 c-3.52-2.34-4.47-4.6-4.47-6.94c0-3.52,2.67-6.47,7.31-6.47c1.32,0,2.44,0.17,3.25,0.34l1.73,0.27c-0.1,0.34-0.27,2.1-0.27,3.25 c-0.61-0.78-2.17-1.96-4.91-1.96c-2.57,0-4.3,1.59-4.3,3.89c0,1.83,0.41,3.15,3.59,5.21l1.56,1.05c4.03,2.67,4.81,4.74,4.81,7.28 c0,1.46-0.58,4.13-2.94,5.75c-1.49,1.05-3.38,1.45-5.11,1.45c-2.17,0-4.54-0.57-5.62-1.39C46.43,24.68,46.6,22.81,46.6,21.83"></path> </svg> 